<svg xmlns="http://www.w3.org/2000/svg"> 

	<symbol id= "iconHome" height="50px" viewBox="0 -960 960 960" width="50px" fill="var(--text)"><path d="M240-200h120v-240h240v240h120v-360L480-740 240-560v360Zm-80 80v-480l320-240 320 240v480H520v-240h-80v240H160Zm320-350Z"/></symbol>

	<symbol id= "iconToggle"  height="50px" viewBox="0 -960 960 960" width="50px" fill="var(--text)"> <path d="M480-28 346-160H160v-186L28-480l132-134v-186h186l134-132 134 132h186v186l132 134-132 134v186H614L480-28Zm0-252q83 0 141.5-58.5T680-480q0-83-58.5-141.5T480-680v400Zm0 140 100-100h140v-140l100-100-100-100v-140H580L480-820 380-720H240v140L140-480l100 100v140h140l100 100Zm0-340Z"/></symbol>

	<symbol id="iconPin" height="25px" viewBox="0 -960 960 960" width="25px" fill="var(--text)"><path d="M536.5-503.5Q560-527 560-560t-23.5-56.5Q513-640 480-640t-56.5 23.5Q400-593 400-560t23.5 56.5Q447-480 480-480t56.5-23.5ZM480-186q122-112 181-203.5T720-552q0-109-69.5-178.5T480-800q-101 0-170.5 69.5T240-552q0 71 59 162.5T480-186Zm0 106Q319-217 239.5-334.5T160-552q0-150 96.5-239T480-880q127 0 223.5 89T800-552q0 100-79.5 217.5T480-80Zm0-480Z"/></symbol> 

	<symbol id="iconPinPlus" height="25px" viewBox="0 -960 960 960" width="25px" fill="var(--text)"><path d="M440-400h80v-120h120v-80H520v-120h-80v120H320v80h120v120Zm40 214q122-112 181-203.5T720-552q0-109-69.5-178.5T480-800q-101 0-170.5 69.5T240-552q0 71 59 162.5T480-186Zm0 106Q319-217 239.5-334.5T160-552q0-150 96.5-239T480-880q127 0 223.5 89T800-552q0 100-79.5 217.5T480-80Zm0-480Z"/></symbol>

	<symbol id="iconOrigin" height="25px" viewBox="0 -960 960 960" width="25px" fill="var(--highlight)"><path d="M325-111.5q-73-31.5-127.5-86t-86-127.5Q80-398 80-480.5t31.5-155q31.5-72.5 86-127t127.5-86Q398-880 480.5-880t155 31.5q72.5 31.5 127 86t86 127Q880-563 880-480.5T848.5-325q-31.5 73-86 127.5t-127 86Q563-80 480.5-80T325-111.5ZM650-310q70-70 70-170t-70-170q-70-70-170-70t-170 70q-70 70-70 170t70 170q70 70 170 70t170-70Z"/></symbol>

</svg>